<svg width="41" height="42" viewBox="0 0 41 42" fill="none" xmlns="http://www.w3.org/2000/svg">
<g clip-path="url(#clip0_6_35)">
<rect width="41" height="42" rx="15" fill="#2563EB"/>
<path d="M15.4766 33V8.39062H20.4336V33H15.4766ZM22.332 33V28.043C22.8477 28.043 23.3281 27.832 23.7734 27.4102C24.1016 27.0352 24.2773 26.5898 24.3008 26.0742V15.3164C24.3008 14.8477 24.1016 14.3906 23.7031 13.9453C23.3281 13.5703 22.8711 13.3711 22.332 13.3477V8.39062C24.9336 8.39062 26.9023 9.55078 28.2383 11.8711C28.918 13.0664 29.2578 14.2148 29.2578 15.3164V26.0742C29.2578 28.7461 28.0742 30.7383 25.707 32.0508C24.5352 32.6836 23.4102 33 22.332 33Z" fill="white"/>
</g>
<defs>
<clipPath id="clip0_6_35">
<rect width="41" height="42" rx="15" fill="white"/>
</clipPath>
</defs>
</svg>
