<svg width="90" height="90" viewBox="0 0 90 90" fill="none" xmlns="http://www.w3.org/2000/svg">
<path d="M77 5H13C8.58172 5 5 8.58172 5 13V77C5 81.4183 8.58172 85 13 85H77C81.4183 85 85 81.4183 85 77V13C85 8.58172 81.4183 5 77 5Z" fill="#0052FF"/>
<path d="M44.24 63.832C33.58 63.832 27.184 55.98 27.184 44.592C27.184 33.464 33.684 25.248 44.708 25.248C54.276 25.248 59.216 30.344 60.828 38.196L52.664 38.56C51.884 34.452 49.596 31.904 44.76 31.904C38.416 31.904 35.348 37.364 35.348 44.592C35.348 51.976 38.26 57.176 44.916 57.176C49.804 57.176 52.82 54.004 53.184 49.584H44.76V43.812H60.932V63H56.044L55.784 57.748C53.86 61.44 49.44 63.832 44.24 63.832Z" fill="white"/>
</svg>
